<svg xmlns="http://www.w3.org/2000/svg" viewBox="0 0 640 420" width="640" height="420" role="img" aria-label="Solar water heaters">
  <title>Solar water heaters</title>
  <defs>
    <linearGradient id="glassFace" x1="0" y1="0" x2="0.35" y2="1">
      <stop offset="0%" stop-color="#2d5f8a"/>
      <stop offset="55%" stop-color="#234553"/>
      <stop offset="100%" stop-color="#122d3b"/>
    </linearGradient>
    <linearGradient id="caseFront" x1="0" y1="0" x2="0" y2="1">
      <stop offset="0%" stop-color="#234553"/>
      <stop offset="100%" stop-color="#122d3b"/>
    </linearGradient>
    <linearGradient id="metal" x1="0" y1="0" x2="1" y2="1">
      <stop offset="0%" stop-color="#e9f1f8"/>
      <stop offset="100%" stop-color="#c3d3e2"/>
    </linearGradient>
    <radialGradient id="glow">
      <stop offset="0%" stop-color="#65c9a5" stop-opacity="0.16"/>
      <stop offset="70%" stop-color="#65c9a5" stop-opacity="0.04"/>
      <stop offset="100%" stop-color="#65c9a5" stop-opacity="0"/>
    </radialGradient>
  </defs>
  <rect width="640" height="420" fill="#fcfcf9"/>
  <circle cx="320" cy="210" r="248" fill="url(#glow)"/>
  <ellipse cx="320" cy="340" rx="230" ry="13" fill="#122d3b" opacity="0.08"/>
  <line x1="573" y1="74" x2="581" y2="74" stroke="#65c9a5" stroke-width="3" stroke-linecap="round" opacity="0.5"/><line x1="565.7" y1="91.7" x2="571.3" y2="97.3" stroke="#65c9a5" stroke-width="3" stroke-linecap="round" opacity="0.5"/><line x1="548" y1="99" x2="548" y2="107" stroke="#65c9a5" stroke-width="3" stroke-linecap="round" opacity="0.5"/><line x1="530.3" y1="91.7" x2="524.7" y2="97.3" stroke="#65c9a5" stroke-width="3" stroke-linecap="round" opacity="0.5"/><line x1="523" y1="74" x2="515" y2="74" stroke="#65c9a5" stroke-width="3" stroke-linecap="round" opacity="0.5"/><line x1="530.3" y1="56.3" x2="524.7" y2="50.7" stroke="#65c9a5" stroke-width="3" stroke-linecap="round" opacity="0.5"/><line x1="548" y1="49" x2="548" y2="41" stroke="#65c9a5" stroke-width="3" stroke-linecap="round" opacity="0.5"/><line x1="565.7" y1="56.3" x2="571.3" y2="50.7" stroke="#65c9a5" stroke-width="3" stroke-linecap="round" opacity="0.5"/><circle cx="548" cy="74" r="18" fill="#65c9a5" opacity="0.85"/>
  <path d="M176 186 L198 186 L174 320 L150 320 Z" fill="#234553"/>
                <path d="M180 190 L187 190 L162 314 L155 314 Z" fill="#8dbcff" opacity="0.3"/><path d="M212 186 L234 186 L212 320 L188 320 Z" fill="#234553"/>
                <path d="M216 190 L223 190 L200 314 L193 314 Z" fill="#8dbcff" opacity="0.3"/><path d="M248 186 L270 186 L250 320 L226 320 Z" fill="#234553"/>
                <path d="M252 190 L259 190 L238 314 L231 314 Z" fill="#8dbcff" opacity="0.3"/><path d="M284 186 L306 186 L288 320 L264 320 Z" fill="#234553"/>
                <path d="M288 190 L295 190 L276 314 L269 314 Z" fill="#8dbcff" opacity="0.3"/><path d="M320 186 L342 186 L326 320 L302 320 Z" fill="#234553"/>
                <path d="M324 190 L331 190 L314 314 L307 314 Z" fill="#8dbcff" opacity="0.3"/><path d="M356 186 L378 186 L364 320 L340 320 Z" fill="#234553"/>
                <path d="M360 190 L367 190 L352 314 L345 314 Z" fill="#8dbcff" opacity="0.3"/><path d="M392 186 L414 186 L402 320 L378 320 Z" fill="#234553"/>
                <path d="M396 190 L403 190 L390 314 L383 314 Z" fill="#8dbcff" opacity="0.3"/><path d="M428 186 L450 186 L440 320 L416 320 Z" fill="#234553"/>
                <path d="M432 190 L439 190 L428 314 L421 314 Z" fill="#8dbcff" opacity="0.3"/><path d="M464 186 L486 186 L478 320 L454 320 Z" fill="#234553"/>
                <path d="M468 190 L475 190 L466 314 L459 314 Z" fill="#8dbcff" opacity="0.3"/>

  <!-- support frame -->
  <path d="M150 320 L138 350 M490 320 L502 350" stroke="#66767c" stroke-width="7" stroke-linecap="round"/>

  <!-- insulated tank -->
  <rect x="140" y="104" width="360" height="76" rx="38" fill="url(#caseFront)"/>
  <rect x="140" y="104" width="360" height="30.4" rx="38" fill="#ffffff" opacity="0.06"/>
  <ellipse cx="140" cy="142" rx="15" ry="38" fill="#27547a"/>
  <ellipse cx="500" cy="142" rx="15" ry="38" fill="#0a1e30"/>

  <rect x="230" y="118" width="180" height="48" rx="10" fill="#fcfcf9" opacity="0.97"/>
  <rect x="230" y="118" width="180" height="4" rx="2" fill="#65c9a5"/>
  <text x="320" y="141" text-anchor="middle" font-family="system-ui,-apple-system,'Segoe UI',Roboto,'Helvetica Neue',Arial,sans-serif" font-size="17" font-weight="700" fill="#122d3b">CIBI</text>
  <text x="320" y="158" text-anchor="middle" font-family="system-ui,-apple-system,'Segoe UI',Roboto,'Helvetica Neue',Arial,sans-serif" font-size="12" font-weight="500" fill="#53636a">WATER HEATERS</text>
</svg>
