<svg xmlns="http://www.w3.org/2000/svg" viewBox="0 0 640 420" width="640" height="420" role="img" aria-label="HAUL 130 battery">
  <title>HAUL 130 battery</title>
  <defs>
    <linearGradient id="caseFront" x1="0" y1="0" x2="0" y2="1">
      <stop offset="0%" stop-color="#1c3d5a"/>
      <stop offset="100%" stop-color="#102a43"/>
    </linearGradient>
    <radialGradient id="glow">
      <stop offset="0%" stop-color="#5b9dff" stop-opacity="0.16"/>
      <stop offset="70%" stop-color="#5b9dff" stop-opacity="0.04"/>
      <stop offset="100%" stop-color="#5b9dff" stop-opacity="0"/>
    </radialGradient>
  </defs>
  <rect width="640" height="420" fill="#f8fafc"/>
  <circle cx="320" cy="218.4" r="248" fill="url(#glow)"/>
  <!-- ground shadow -->
  <ellipse cx="320" cy="386" rx="302.4" ry="16" fill="#102a43" opacity="0.08"/>

  <!-- side face -->
  <path d="M474 134 L586 70 L586 308 L474 372 Z" fill="#0a1e30"/>

  <!-- top face -->
  <path d="M54 134 L166 70 L586 70 L474 134 Z" fill="#27547a"/>

  <!-- lid inset -->
  <path d="M97.1 123.8 L173.3 80.2 L542.9 80.2 L466.7 123.8 Z" fill="#1c3d5a" opacity="0.75"/>
  <ellipse cx="234.9" cy="112.2" rx="18.9" ry="9.2" fill="#0a1e30" opacity="0.35"/><ellipse cx="302.1" cy="112.2" rx="18.9" ry="9.2" fill="#0a1e30" opacity="0.35"/><ellipse cx="369.3" cy="112.2" rx="18.9" ry="9.2" fill="#0a1e30" opacity="0.35"/>

  <!-- front face -->
  <rect x="54" y="134" width="420" height="238" rx="7" fill="url(#caseFront)"/>
  <!-- soft top highlight on the front face -->
  <rect x="54" y="134" width="420" height="76.2" rx="7" fill="#ffffff" opacity="0.05"/>

  <!-- label plate -->
  <rect x="100.2" y="205.4" width="327.6" height="100" rx="9" fill="#f8fafc" opacity="0.96"/>
  <rect x="100.2" y="205.4" width="327.6" height="4.5" rx="2.2" fill="#5b9dff"/>
  <text x="264" y="252.4" text-anchor="middle" font-family="system-ui,-apple-system,'Segoe UI',Roboto,'Helvetica Neue',Arial,sans-serif" font-size="30" font-weight="700" fill="#102a43" letter-spacing="-0.3">HAUL 130</text>
  <text x="264" y="283.4" text-anchor="middle" font-family="system-ui,-apple-system,'Segoe UI',Roboto,'Helvetica Neue',Arial,sans-serif" font-size="21" font-weight="500" fill="#486581" letter-spacing="0.4">130 Ah / 12 V</text>

  <!-- terminals: accent marks positive, neutral marks negative -->
  
    <ellipse cx="192.6" cy="95.6" rx="25" ry="13" fill="#0a1e30" opacity="0.55"/>
    <rect x="171.6" y="69.6" width="42" height="26" fill="#5b9dff"/>
    <ellipse cx="192.6" cy="95.6" rx="21" ry="11" fill="#5b9dff"/>
    <ellipse cx="192.6" cy="69.6" rx="21" ry="11" fill="#8dbcff"/>
  
    <ellipse cx="469.8" cy="95.6" rx="25" ry="13" fill="#0a1e30" opacity="0.55"/>
    <rect x="448.8" y="69.6" width="42" height="26" fill="#829ab1"/>
    <ellipse cx="469.8" cy="95.6" rx="21" ry="11" fill="#829ab1"/>
    <ellipse cx="469.8" cy="69.6" rx="21" ry="11" fill="#a8bccd"/>
</svg>
