<svg xmlns="http://www.w3.org/2000/svg" viewBox="0 0 640 420" width="640" height="420" role="img" aria-label="Cibi Warm 300 flat plate solar water heater">
  <title>Cibi Warm 300 flat plate solar water heater</title>
  <defs>
    <linearGradient id="glassFace" x1="0" y1="0" x2="0.35" y2="1">
      <stop offset="0%" stop-color="#2d5f8a"/>
      <stop offset="55%" stop-color="#234553"/>
      <stop offset="100%" stop-color="#122d3b"/>
    </linearGradient>
    <linearGradient id="caseFront" x1="0" y1="0" x2="0" y2="1">
      <stop offset="0%" stop-color="#234553"/>
      <stop offset="100%" stop-color="#122d3b"/>
    </linearGradient>
    <linearGradient id="metal" x1="0" y1="0" x2="1" y2="1">
      <stop offset="0%" stop-color="#e9f1f8"/>
      <stop offset="100%" stop-color="#c3d3e2"/>
    </linearGradient>
    <radialGradient id="glow">
      <stop offset="0%" stop-color="#65c9a5" stop-opacity="0.16"/>
      <stop offset="70%" stop-color="#65c9a5" stop-opacity="0.04"/>
      <stop offset="100%" stop-color="#65c9a5" stop-opacity="0"/>
    </radialGradient>
  </defs>
  <rect width="640" height="420" fill="#fcfcf9"/>
  <circle cx="320" cy="210" r="248" fill="url(#glow)"/>
  <ellipse cx="320" cy="340" rx="230" ry="13" fill="#122d3b" opacity="0.08"/>
  <line x1="573" y1="74" x2="581" y2="74" stroke="#65c9a5" stroke-width="3" stroke-linecap="round" opacity="0.5"/><line x1="565.7" y1="91.7" x2="571.3" y2="97.3" stroke="#65c9a5" stroke-width="3" stroke-linecap="round" opacity="0.5"/><line x1="548" y1="99" x2="548" y2="107" stroke="#65c9a5" stroke-width="3" stroke-linecap="round" opacity="0.5"/><line x1="530.3" y1="91.7" x2="524.7" y2="97.3" stroke="#65c9a5" stroke-width="3" stroke-linecap="round" opacity="0.5"/><line x1="523" y1="74" x2="515" y2="74" stroke="#65c9a5" stroke-width="3" stroke-linecap="round" opacity="0.5"/><line x1="530.3" y1="56.3" x2="524.7" y2="50.7" stroke="#65c9a5" stroke-width="3" stroke-linecap="round" opacity="0.5"/><line x1="548" y1="49" x2="548" y2="41" stroke="#65c9a5" stroke-width="3" stroke-linecap="round" opacity="0.5"/><line x1="565.7" y1="56.3" x2="571.3" y2="50.7" stroke="#65c9a5" stroke-width="3" stroke-linecap="round" opacity="0.5"/><circle cx="548" cy="74" r="18" fill="#65c9a5" opacity="0.85"/>
  <path d="M168 196 L500 196 L470 318 L138 318 Z" fill="url(#metal)"/>
       <path d="M180 206 L488 206 L462 308 L156 308 Z" fill="url(#glassFace)"/>
       <line x1="218.5" y1="206" x2="194.3" y2="308" stroke="#8dbcff" stroke-width="2" opacity="0.32"/><line x1="257" y1="206" x2="232.5" y2="308" stroke="#8dbcff" stroke-width="2" opacity="0.32"/><line x1="295.5" y1="206" x2="270.8" y2="308" stroke="#8dbcff" stroke-width="2" opacity="0.32"/><line x1="334" y1="206" x2="309" y2="308" stroke="#8dbcff" stroke-width="2" opacity="0.32"/><line x1="372.5" y1="206" x2="347.3" y2="308" stroke="#8dbcff" stroke-width="2" opacity="0.32"/><line x1="411" y1="206" x2="385.5" y2="308" stroke="#8dbcff" stroke-width="2" opacity="0.32"/><line x1="449.5" y1="206" x2="423.8" y2="308" stroke="#8dbcff" stroke-width="2" opacity="0.32"/>

  <!-- support frame -->
  <path d="M150 320 L138 350 M490 320 L502 350" stroke="#66767c" stroke-width="7" stroke-linecap="round"/>

  <!-- insulated tank -->
  <rect x="140" y="104" width="360" height="76" rx="38" fill="url(#caseFront)"/>
  <rect x="140" y="104" width="360" height="30.4" rx="38" fill="#ffffff" opacity="0.06"/>
  <ellipse cx="140" cy="142" rx="15" ry="38" fill="#27547a"/>
  <ellipse cx="500" cy="142" rx="15" ry="38" fill="#0a1e30"/>

  <rect x="230" y="118" width="180" height="48" rx="10" fill="#fcfcf9" opacity="0.97"/>
  <rect x="230" y="118" width="180" height="4" rx="2" fill="#65c9a5"/>
  <text x="320" y="141" text-anchor="middle" font-family="system-ui,-apple-system,'Segoe UI',Roboto,'Helvetica Neue',Arial,sans-serif" font-size="17" font-weight="700" fill="#122d3b">WARM 300</text>
  <text x="320" y="158" text-anchor="middle" font-family="system-ui,-apple-system,'Segoe UI',Roboto,'Helvetica Neue',Arial,sans-serif" font-size="12" font-weight="500" fill="#53636a">300 LPD / FPC</text>
</svg>
